<?xml version="1.0" encoding="UTF-8" standalone="no"?>
<!DOCTYPE svg PUBLIC "-//W3C//DTD SVG 1.1//EN"
 "http://www.w3.org/Graphics/SVG/1.1/DTD/svg11.dtd">
<!-- Generated by graphviz version 2.36.0 (20140111.2315)
 -->
<!-- Title: G Pages: 1 -->
<svg width="694pt" height="834pt"
 viewBox="0.00 0.00 694.00 834.00" xmlns="http://www.w3.org/2000/svg" xmlns:xlink="http://www.w3.org/1999/xlink">
<g id="graph0" class="graph" transform="scale(1 1) rotate(0) translate(4 830)">
<title>G</title>
<polygon fill="white" stroke="none" points="-4,4 -4,-830 690,-830 690,4 -4,4"/>
<g id="clust1" class="cluster"><title>cluster_Global</title>
<path fill="none" stroke="gray" d="M240,-44C240,-44 666,-44 666,-44 672,-44 678,-50 678,-56 678,-56 678,-806 678,-806 678,-812 672,-818 666,-818 666,-818 240,-818 240,-818 234,-818 228,-812 228,-806 228,-806 228,-56 228,-56 228,-50 234,-44 240,-44"/>
<text text-anchor="middle" x="453" y="-805.2" font-family="Times,serif" font-size="11.00" fill="gray">Global</text>
</g>
<!-- \\WP_Buoy_Plugin -->
<g id="node1" class="node"><title>\\WP_Buoy_Plugin</title>
<polygon fill="none" stroke="black" points="357.5,-682 246.5,-682 246.5,-646 357.5,-646 357.5,-682"/>
<text text-anchor="middle" x="302" y="-661.2" font-family="Courier,monospace" font-size="11.00">WP_Buoy_Plugin</text>
</g>
<!-- \\WP_Buoy_Alert -->
<g id="node2" class="node"><title>\\WP_Buoy_Alert</title>
<polygon fill="none" stroke="black" points="609,-520 505,-520 505,-484 609,-484 609,-520"/>
<text text-anchor="middle" x="557" y="-499.2" font-family="Courier,monospace" font-size="11.00">WP_Buoy_Alert</text>
</g>
<!-- \\WP_Buoy_Alert&#45;&gt;\\WP_Buoy_Plugin -->
<g id="edge1" class="edge"><title>\\WP_Buoy_Alert&#45;&gt;\\WP_Buoy_Plugin</title>
<path fill="none" stroke="black" d="M504.867,-508.475C485.005,-512.457 462.605,-518.833 444,-529 393.71,-556.481 348.336,-606.561 323.326,-637.394"/>
<polygon fill="none" stroke="black" points="320.324,-635.545 316.825,-645.545 325.797,-639.91 320.324,-635.545"/>
</g>
<!-- \\WP_Buoy_Chat_Room -->
<g id="node3" class="node"><title>\\WP_Buoy_Chat_Room</title>
<polygon fill="none" stroke="black" points="622.5,-790 491.5,-790 491.5,-754 622.5,-754 622.5,-790"/>
<text text-anchor="middle" x="557" y="-769.2" font-family="Courier,monospace" font-size="11.00">WP_Buoy_Chat_Room</text>
</g>
<!-- \\WP_Buoy_Chat_Room&#45;&gt;\\WP_Buoy_Plugin -->
<g id="edge2" class="edge"><title>\\WP_Buoy_Chat_Room&#45;&gt;\\WP_Buoy_Plugin</title>
<path fill="none" stroke="black" d="M491.349,-759.73C475.584,-755.838 458.959,-750.957 444,-745 405.779,-729.779 365.382,-705.639 337.672,-687.667"/>
<polygon fill="none" stroke="black" points="339.42,-684.628 329.14,-682.068 335.58,-690.48 339.42,-684.628"/>
</g>
<!-- \\WP_Buoy_Notification -->
<g id="node4" class="node"><title>\\WP_Buoy_Notification</title>
<polygon fill="none" stroke="black" points="633,-736 481,-736 481,-700 633,-700 633,-736"/>
<text text-anchor="middle" x="557" y="-715.2" font-family="Courier,monospace" font-size="11.00">WP_Buoy_Notification</text>
</g>
<!-- \\WP_Buoy_Notification&#45;&gt;\\WP_Buoy_Plugin -->
<g id="edge3" class="edge"><title>\\WP_Buoy_Notification&#45;&gt;\\WP_Buoy_Plugin</title>
<path fill="none" stroke="black" d="M480.777,-701.944C444.849,-694.276 402.28,-685.19 367.806,-677.832"/>
<polygon fill="none" stroke="black" points="368.358,-674.371 357.847,-675.707 366.896,-681.217 368.358,-674.371"/>
</g>
<!-- \\WP_Buoy_Settings -->
<g id="node5" class="node"><title>\\WP_Buoy_Settings</title>
<polygon fill="none" stroke="black" points="619.5,-628 494.5,-628 494.5,-592 619.5,-592 619.5,-628"/>
<text text-anchor="middle" x="557" y="-607.2" font-family="Courier,monospace" font-size="11.00">WP_Buoy_Settings</text>
</g>
<!-- \\Buoy_Team_Membership_List_Table -->
<g id="node6" class="node"><title>\\Buoy_Team_Membership_List_Table</title>
<polygon fill="none" stroke="black" points="670,-88 444,-88 444,-52 670,-52 670,-88"/>
<text text-anchor="middle" x="557" y="-67.2" font-family="Courier,monospace" font-size="11.00">Buoy_Team_Membership_List_Table</text>
</g>
<!-- \\WP_List_Table -->
<g id="node17" class="node"><title>\\WP_List_Table</title>
<ellipse fill="none" stroke="black" cx="302" cy="-18" rx="69.5877" ry="18"/>
<text text-anchor="middle" x="302" y="-14.3" font-family="Times,serif" font-size="14.00" fill="gray">\WP_List_Table</text>
</g>
<!-- \\Buoy_Team_Membership_List_Table&#45;&gt;\\WP_List_Table -->
<g id="edge4" class="edge"><title>\\Buoy_Team_Membership_List_Table&#45;&gt;\\WP_List_Table</title>
<path fill="none" stroke="black" d="M468.223,-51.9589C435.013,-45.1331 397.862,-37.4973 367.212,-31.1977"/>
<polygon fill="none" stroke="black" points="367.582,-27.7007 357.082,-29.1157 366.173,-34.5573 367.582,-27.7007"/>
</g>
<!-- \\WP_Buoy_Team -->
<g id="node7" class="node"><title>\\WP_Buoy_Team</title>
<polygon fill="none" stroke="black" points="606,-682 508,-682 508,-646 606,-646 606,-682"/>
<text text-anchor="middle" x="557" y="-661.2" font-family="Courier,monospace" font-size="11.00">WP_Buoy_Team</text>
</g>
<!-- \\WP_Buoy_Team&#45;&gt;\\WP_Buoy_Plugin -->
<g id="edge5" class="edge"><title>\\WP_Buoy_Team&#45;&gt;\\WP_Buoy_Plugin</title>
<path fill="none" stroke="black" d="M507.817,-664C468.131,-664 411.49,-664 367.827,-664"/>
<polygon fill="none" stroke="black" points="367.592,-660.5 357.592,-664 367.592,-667.5 367.592,-660.5"/>
</g>
<!-- \\WP_Buoy_User_Settings -->
<g id="node8" class="node"><title>\\WP_Buoy_User_Settings</title>
<polygon fill="none" stroke="black" points="636,-466 478,-466 478,-430 636,-430 636,-466"/>
<text text-anchor="middle" x="557" y="-445.2" font-family="Courier,monospace" font-size="11.00">WP_Buoy_User_Settings</text>
</g>
<!-- \\WP_Buoy_User -->
<g id="node9" class="node"><title>\\WP_Buoy_User</title>
<polygon fill="none" stroke="black" points="606,-574 508,-574 508,-538 606,-538 606,-574"/>
<text text-anchor="middle" x="557" y="-553.2" font-family="Courier,monospace" font-size="11.00">WP_Buoy_User</text>
</g>
<!-- \\WP_Buoy_User&#45;&gt;\\WP_Buoy_Plugin -->
<g id="edge6" class="edge"><title>\\WP_Buoy_User&#45;&gt;\\WP_Buoy_Plugin</title>
<path fill="none" stroke="black" d="M507.934,-564.445C487.779,-568.786 464.347,-574.897 444,-583 405.779,-598.221 365.382,-622.361 337.672,-640.333"/>
<polygon fill="none" stroke="black" points="335.58,-637.52 329.14,-645.932 339.42,-643.372 335.58,-637.52"/>
</g>
<!-- \\Buoy_Crontab_Manager -->
<g id="node10" class="node"><title>\\Buoy_Crontab_Manager</title>
<polygon fill="none" stroke="black" points="633,-358 481,-358 481,-322 633,-322 633,-358"/>
<text text-anchor="middle" x="557" y="-337.2" font-family="Courier,monospace" font-size="11.00">Buoy_Crontab_Manager</text>
</g>
<!-- \\Buoy_UnitTestCase -->
<g id="node11" class="node"><title>\\Buoy_UnitTestCase</title>
<polygon fill="none" stroke="black" points="367.5,-250 236.5,-250 236.5,-214 367.5,-214 367.5,-250"/>
<text text-anchor="middle" x="302" y="-229.2" font-family="Courier,monospace" font-size="11.00">Buoy_UnitTestCase</text>
</g>
<!-- \\WP_UnitTestCase -->
<g id="node18" class="node"><title>\\WP_UnitTestCase</title>
<ellipse fill="none" stroke="black" cx="80" cy="-232" rx="79.0865" ry="18"/>
<text text-anchor="middle" x="80" y="-228.3" font-family="Times,serif" font-size="14.00" fill="gray">\WP_UnitTestCase</text>
</g>
<!-- \\Buoy_UnitTestCase&#45;&gt;\\WP_UnitTestCase -->
<g id="edge7" class="edge"><title>\\Buoy_UnitTestCase&#45;&gt;\\WP_UnitTestCase</title>
<path fill="none" stroke="black" d="M236.479,-232C215.589,-232 192.042,-232 169.713,-232"/>
<polygon fill="none" stroke="black" points="169.553,-228.5 159.553,-232 169.553,-235.5 169.553,-228.5"/>
</g>
<!-- \\BuoyAlertsTest -->
<g id="node12" class="node"><title>\\BuoyAlertsTest</title>
<polygon fill="none" stroke="black" points="612.5,-142 501.5,-142 501.5,-106 612.5,-106 612.5,-142"/>
<text text-anchor="middle" x="557" y="-121.2" font-family="Courier,monospace" font-size="11.00">BuoyAlertsTest</text>
</g>
<!-- \\BuoyAlertsTest&#45;&gt;\\Buoy_UnitTestCase -->
<g id="edge8" class="edge"><title>\\BuoyAlertsTest&#45;&gt;\\Buoy_UnitTestCase</title>
<path fill="none" stroke="black" d="M501.483,-133.872C482.892,-138.091 462.21,-143.748 444,-151 405.779,-166.221 365.382,-190.361 337.672,-208.333"/>
<polygon fill="none" stroke="black" points="335.58,-205.52 329.14,-213.932 339.42,-211.372 335.58,-205.52"/>
</g>
<!-- \\BuoyRespondersTest -->
<g id="node13" class="node"><title>\\BuoyRespondersTest</title>
<polygon fill="none" stroke="black" points="626,-412 488,-412 488,-376 626,-376 626,-412"/>
<text text-anchor="middle" x="557" y="-391.2" font-family="Courier,monospace" font-size="11.00">BuoyRespondersTest</text>
</g>
<!-- \\BuoyRespondersTest&#45;&gt;\\Buoy_UnitTestCase -->
<g id="edge9" class="edge"><title>\\BuoyRespondersTest&#45;&gt;\\Buoy_UnitTestCase</title>
<path fill="none" stroke="black" d="M487.831,-383.614C472.831,-379.7 457.427,-374.337 444,-367 393.71,-339.519 348.336,-289.439 323.326,-258.606"/>
<polygon fill="none" stroke="black" points="325.797,-256.09 316.825,-250.455 320.324,-260.455 325.797,-256.09"/>
</g>
<!-- \\BuoySettingsTest -->
<g id="node14" class="node"><title>\\BuoySettingsTest</title>
<polygon fill="none" stroke="black" points="619.5,-304 494.5,-304 494.5,-268 619.5,-268 619.5,-304"/>
<text text-anchor="middle" x="557" y="-283.2" font-family="Courier,monospace" font-size="11.00">BuoySettingsTest</text>
</g>
<!-- \\BuoySettingsTest&#45;&gt;\\Buoy_UnitTestCase -->
<g id="edge10" class="edge"><title>\\BuoySettingsTest&#45;&gt;\\Buoy_UnitTestCase</title>
<path fill="none" stroke="black" d="M494.433,-272.859C459.404,-265.383 415.262,-255.961 378.196,-248.05"/>
<polygon fill="none" stroke="black" points="378.452,-244.526 367.942,-245.861 376.991,-251.371 378.452,-244.526"/>
</g>
<!-- \\BuoyTeamsTest -->
<g id="node15" class="node"><title>\\BuoyTeamsTest</title>
<polygon fill="none" stroke="black" points="609,-250 505,-250 505,-214 609,-214 609,-250"/>
<text text-anchor="middle" x="557" y="-229.2" font-family="Courier,monospace" font-size="11.00">BuoyTeamsTest</text>
</g>
<!-- \\BuoyTeamsTest&#45;&gt;\\Buoy_UnitTestCase -->
<g id="edge11" class="edge"><title>\\BuoyTeamsTest&#45;&gt;\\Buoy_UnitTestCase</title>
<path fill="none" stroke="black" d="M504.802,-232C468.33,-232 418.728,-232 377.828,-232"/>
<polygon fill="none" stroke="black" points="377.63,-228.5 367.63,-232 377.63,-235.5 377.63,-228.5"/>
</g>
<!-- \\BuoyUsersTest -->
<g id="node16" class="node"><title>\\BuoyUsersTest</title>
<polygon fill="none" stroke="black" points="609,-196 505,-196 505,-160 609,-160 609,-196"/>
<text text-anchor="middle" x="557" y="-175.2" font-family="Courier,monospace" font-size="11.00">BuoyUsersTest</text>
</g>
<!-- \\BuoyUsersTest&#45;&gt;\\Buoy_UnitTestCase -->
<g id="edge12" class="edge"><title>\\BuoyUsersTest&#45;&gt;\\Buoy_UnitTestCase</title>
<path fill="none" stroke="black" d="M504.802,-188.928C468.253,-196.729 418.518,-207.344 377.568,-216.084"/>
<polygon fill="none" stroke="black" points="376.68,-212.695 367.63,-218.205 378.141,-219.541 376.68,-212.695"/>
</g>
</g>
</svg>
