<?xml version="1.0" encoding="UTF-8" standalone="no"?>
<!DOCTYPE svg PUBLIC "-//W3C//DTD SVG 1.1//EN"
 "http://www.w3.org/Graphics/SVG/1.1/DTD/svg11.dtd">
<!-- Generated by graphviz version 2.36.0 (20140111.2315)
 -->
<!-- Title: G Pages: 1 -->
<svg width="694pt" height="996pt"
 viewBox="0.00 0.00 694.00 996.00" xmlns="http://www.w3.org/2000/svg" xmlns:xlink="http://www.w3.org/1999/xlink">
<g id="graph0" class="graph" transform="scale(1 1) rotate(0) translate(4 992)">
<title>G</title>
<polygon fill="white" stroke="none" points="-4,4 -4,-992 690,-992 690,4 -4,4"/>
<g id="clust1" class="cluster"><title>cluster_Global</title>
<path fill="none" stroke="gray" d="M240,-44C240,-44 666,-44 666,-44 672,-44 678,-50 678,-56 678,-56 678,-968 678,-968 678,-974 672,-980 666,-980 666,-980 240,-980 240,-980 234,-980 228,-974 228,-968 228,-968 228,-56 228,-56 228,-50 234,-44 240,-44"/>
<text text-anchor="middle" x="453" y="-967.2" font-family="Times,serif" font-size="11.00" fill="gray">Global</text>
</g>
<!-- \\WP_Buoy_Helper -->
<g id="node1" class="node"><title>\\WP_Buoy_Helper</title>
<polygon fill="none" stroke="black" points="612.5,-952 501.5,-952 501.5,-916 612.5,-916 612.5,-952"/>
<text text-anchor="middle" x="557" y="-931.2" font-family="Courier,monospace" font-size="11.00">WP_Buoy_Helper</text>
</g>
<!-- \\BuoyRespondersTest -->
<g id="node2" class="node"><title>\\BuoyRespondersTest</title>
<polygon fill="none" stroke="black" points="626,-790 488,-790 488,-754 626,-754 626,-790"/>
<text text-anchor="middle" x="557" y="-769.2" font-family="Courier,monospace" font-size="11.00">BuoyRespondersTest</text>
</g>
<!-- \\Buoy_UnitTestCase -->
<g id="node14" class="node"><title>\\Buoy_UnitTestCase</title>
<polygon fill="none" stroke="black" points="367.5,-790 236.5,-790 236.5,-754 367.5,-754 367.5,-790"/>
<text text-anchor="middle" x="302" y="-769.2" font-family="Courier,monospace" font-size="11.00">Buoy_UnitTestCase</text>
</g>
<!-- \\BuoyRespondersTest&#45;&gt;\\Buoy_UnitTestCase -->
<g id="edge1" class="edge"><title>\\BuoyRespondersTest&#45;&gt;\\Buoy_UnitTestCase</title>
<path fill="none" stroke="black" d="M487.868,-772C453.9,-772 412.74,-772 377.889,-772"/>
<polygon fill="none" stroke="black" points="377.766,-768.5 367.766,-772 377.766,-775.5 377.766,-768.5"/>
</g>
<!-- \\WP_Buoy_User -->
<g id="node3" class="node"><title>\\WP_Buoy_User</title>
<polygon fill="none" stroke="black" points="606,-628 508,-628 508,-592 606,-592 606,-628"/>
<text text-anchor="middle" x="557" y="-607.2" font-family="Courier,monospace" font-size="11.00">WP_Buoy_User</text>
</g>
<!-- \\WP_Buoy_Plugin -->
<g id="node13" class="node"><title>\\WP_Buoy_Plugin</title>
<polygon fill="none" stroke="black" points="357.5,-466 246.5,-466 246.5,-430 357.5,-430 357.5,-466"/>
<text text-anchor="middle" x="302" y="-445.2" font-family="Courier,monospace" font-size="11.00">WP_Buoy_Plugin</text>
</g>
<!-- \\WP_Buoy_User&#45;&gt;\\WP_Buoy_Plugin -->
<g id="edge2" class="edge"><title>\\WP_Buoy_User&#45;&gt;\\WP_Buoy_Plugin</title>
<path fill="none" stroke="black" d="M507.938,-604.126C487.34,-600.195 463.57,-593.694 444,-583 393.71,-555.519 348.336,-505.439 323.326,-474.606"/>
<polygon fill="none" stroke="black" points="325.797,-472.09 316.825,-466.455 320.324,-476.455 325.797,-472.09"/>
</g>
<!-- \\BuoyAlertsTest -->
<g id="node4" class="node"><title>\\BuoyAlertsTest</title>
<polygon fill="none" stroke="black" points="612.5,-736 501.5,-736 501.5,-700 612.5,-700 612.5,-736"/>
<text text-anchor="middle" x="557" y="-715.2" font-family="Courier,monospace" font-size="11.00">BuoyAlertsTest</text>
</g>
<!-- \\BuoyAlertsTest&#45;&gt;\\Buoy_UnitTestCase -->
<g id="edge3" class="edge"><title>\\BuoyAlertsTest&#45;&gt;\\Buoy_UnitTestCase</title>
<path fill="none" stroke="black" d="M501.414,-729.651C465.257,-737.368 417.363,-747.591 377.688,-756.059"/>
<polygon fill="none" stroke="black" points="376.84,-752.661 367.791,-758.171 378.301,-759.507 376.84,-752.661"/>
</g>
<!-- \\BuoySettingsTest -->
<g id="node5" class="node"><title>\\BuoySettingsTest</title>
<polygon fill="none" stroke="black" points="619.5,-682 494.5,-682 494.5,-646 619.5,-646 619.5,-682"/>
<text text-anchor="middle" x="557" y="-661.2" font-family="Courier,monospace" font-size="11.00">BuoySettingsTest</text>
</g>
<!-- \\BuoySettingsTest&#45;&gt;\\Buoy_UnitTestCase -->
<g id="edge4" class="edge"><title>\\BuoySettingsTest&#45;&gt;\\Buoy_UnitTestCase</title>
<path fill="none" stroke="black" d="M494.277,-675.557C477.656,-679.56 459.888,-684.673 444,-691 405.779,-706.221 365.382,-730.361 337.672,-748.333"/>
<polygon fill="none" stroke="black" points="335.58,-745.52 329.14,-753.932 339.42,-751.372 335.58,-745.52"/>
</g>
<!-- \\Buoy_Team_Membership_List_Table -->
<g id="node6" class="node"><title>\\Buoy_Team_Membership_List_Table</title>
<polygon fill="none" stroke="black" points="670,-88 444,-88 444,-52 670,-52 670,-88"/>
<text text-anchor="middle" x="557" y="-67.2" font-family="Courier,monospace" font-size="11.00">Buoy_Team_Membership_List_Table</text>
</g>
<!-- \\WP_List_Table -->
<g id="node20" class="node"><title>\\WP_List_Table</title>
<ellipse fill="none" stroke="black" cx="302" cy="-18" rx="69.5877" ry="18"/>
<text text-anchor="middle" x="302" y="-14.3" font-family="Times,serif" font-size="14.00" fill="gray">\WP_List_Table</text>
</g>
<!-- \\Buoy_Team_Membership_List_Table&#45;&gt;\\WP_List_Table -->
<g id="edge5" class="edge"><title>\\Buoy_Team_Membership_List_Table&#45;&gt;\\WP_List_Table</title>
<path fill="none" stroke="black" d="M468.223,-51.9589C435.013,-45.1331 397.862,-37.4973 367.212,-31.1977"/>
<polygon fill="none" stroke="black" points="367.582,-27.7007 357.082,-29.1157 366.173,-34.5573 367.582,-27.7007"/>
</g>
<!-- \\WP_Buoy_Notification -->
<g id="node7" class="node"><title>\\WP_Buoy_Notification</title>
<polygon fill="none" stroke="black" points="633,-520 481,-520 481,-484 633,-484 633,-520"/>
<text text-anchor="middle" x="557" y="-499.2" font-family="Courier,monospace" font-size="11.00">WP_Buoy_Notification</text>
</g>
<!-- \\WP_Buoy_Notification&#45;&gt;\\WP_Buoy_Plugin -->
<g id="edge6" class="edge"><title>\\WP_Buoy_Notification&#45;&gt;\\WP_Buoy_Plugin</title>
<path fill="none" stroke="black" d="M480.777,-485.944C444.849,-478.276 402.28,-469.19 367.806,-461.832"/>
<polygon fill="none" stroke="black" points="368.358,-458.371 357.847,-459.707 366.896,-465.217 368.358,-458.371"/>
</g>
<!-- \\Buoy_Crontab_Manager -->
<g id="node8" class="node"><title>\\Buoy_Crontab_Manager</title>
<polygon fill="none" stroke="black" points="633,-574 481,-574 481,-538 633,-538 633,-574"/>
<text text-anchor="middle" x="557" y="-553.2" font-family="Courier,monospace" font-size="11.00">Buoy_Crontab_Manager</text>
</g>
<!-- \\WP_Buoy_Chat_Room -->
<g id="node9" class="node"><title>\\WP_Buoy_Chat_Room</title>
<polygon fill="none" stroke="black" points="622.5,-250 491.5,-250 491.5,-214 622.5,-214 622.5,-250"/>
<text text-anchor="middle" x="557" y="-229.2" font-family="Courier,monospace" font-size="11.00">WP_Buoy_Chat_Room</text>
</g>
<!-- \\WP_Buoy_Chat_Room&#45;&gt;\\WP_Buoy_Plugin -->
<g id="edge7" class="edge"><title>\\WP_Buoy_Chat_Room&#45;&gt;\\WP_Buoy_Plugin</title>
<path fill="none" stroke="black" d="M491.254,-239.657C474.903,-243.66 458.024,-249.748 444,-259 381.39,-300.307 336.173,-379.304 315.526,-420.879"/>
<polygon fill="none" stroke="black" points="312.376,-419.354 311.151,-429.877 318.671,-422.414 312.376,-419.354"/>
</g>
<!-- \\BuoyUsersTest -->
<g id="node10" class="node"><title>\\BuoyUsersTest</title>
<polygon fill="none" stroke="black" points="609,-898 505,-898 505,-862 609,-862 609,-898"/>
<text text-anchor="middle" x="557" y="-877.2" font-family="Courier,monospace" font-size="11.00">BuoyUsersTest</text>
</g>
<!-- \\BuoyUsersTest&#45;&gt;\\Buoy_UnitTestCase -->
<g id="edge8" class="edge"><title>\\BuoyUsersTest&#45;&gt;\\Buoy_UnitTestCase</title>
<path fill="none" stroke="black" d="M504.873,-870.887C485.433,-866.595 463.325,-860.696 444,-853 405.779,-837.779 365.382,-813.639 337.672,-795.667"/>
<polygon fill="none" stroke="black" points="339.42,-792.628 329.14,-790.068 335.58,-798.48 339.42,-792.628"/>
</g>
<!-- \\BuoyTeamsTest -->
<g id="node11" class="node"><title>\\BuoyTeamsTest</title>
<polygon fill="none" stroke="black" points="609,-844 505,-844 505,-808 609,-808 609,-844"/>
<text text-anchor="middle" x="557" y="-823.2" font-family="Courier,monospace" font-size="11.00">BuoyTeamsTest</text>
</g>
<!-- \\BuoyTeamsTest&#45;&gt;\\Buoy_UnitTestCase -->
<g id="edge9" class="edge"><title>\\BuoyTeamsTest&#45;&gt;\\Buoy_UnitTestCase</title>
<path fill="none" stroke="black" d="M504.802,-815.072C468.253,-807.271 418.518,-796.656 377.568,-787.916"/>
<polygon fill="none" stroke="black" points="378.141,-784.459 367.63,-785.795 376.68,-791.305 378.141,-784.459"/>
</g>
<!-- \\WP_Buoy_SMS -->
<g id="node12" class="node"><title>\\WP_Buoy_SMS</title>
<polygon fill="none" stroke="black" points="602.5,-358 511.5,-358 511.5,-322 602.5,-322 602.5,-358"/>
<text text-anchor="middle" x="557" y="-337.2" font-family="Courier,monospace" font-size="11.00">WP_Buoy_SMS</text>
</g>
<!-- \\WP_UnitTestCase -->
<g id="node21" class="node"><title>\\WP_UnitTestCase</title>
<ellipse fill="none" stroke="black" cx="80" cy="-772" rx="79.0865" ry="18"/>
<text text-anchor="middle" x="80" y="-768.3" font-family="Times,serif" font-size="14.00" fill="gray">\WP_UnitTestCase</text>
</g>
<!-- \\Buoy_UnitTestCase&#45;&gt;\\WP_UnitTestCase -->
<g id="edge10" class="edge"><title>\\Buoy_UnitTestCase&#45;&gt;\\WP_UnitTestCase</title>
<path fill="none" stroke="black" d="M236.479,-772C215.589,-772 192.042,-772 169.713,-772"/>
<polygon fill="none" stroke="black" points="169.553,-768.5 159.553,-772 169.553,-775.5 169.553,-768.5"/>
</g>
<!-- \\WP_Buoy_SMS_Email_Bridge -->
<g id="node15" class="node"><title>\\WP_Buoy_SMS_Email_Bridge</title>
<polygon fill="none" stroke="black" points="646.5,-304 467.5,-304 467.5,-268 646.5,-268 646.5,-304"/>
<text text-anchor="middle" x="557" y="-283.2" font-family="Courier,monospace" font-size="11.00">WP_Buoy_SMS_Email_Bridge</text>
</g>
<!-- \\WP_Buoy_Team -->
<g id="node16" class="node"><title>\\WP_Buoy_Team</title>
<polygon fill="none" stroke="black" points="606,-466 508,-466 508,-430 606,-430 606,-466"/>
<text text-anchor="middle" x="557" y="-445.2" font-family="Courier,monospace" font-size="11.00">WP_Buoy_Team</text>
</g>
<!-- \\WP_Buoy_Team&#45;&gt;\\WP_Buoy_Plugin -->
<g id="edge11" class="edge"><title>\\WP_Buoy_Team&#45;&gt;\\WP_Buoy_Plugin</title>
<path fill="none" stroke="black" d="M507.817,-448C468.131,-448 411.49,-448 367.827,-448"/>
<polygon fill="none" stroke="black" points="367.592,-444.5 357.592,-448 367.592,-451.5 367.592,-444.5"/>
</g>
<!-- \\WP_Buoy_User_Settings -->
<g id="node17" class="node"><title>\\WP_Buoy_User_Settings</title>
<polygon fill="none" stroke="black" points="636,-196 478,-196 478,-160 636,-160 636,-196"/>
<text text-anchor="middle" x="557" y="-175.2" font-family="Courier,monospace" font-size="11.00">WP_Buoy_User_Settings</text>
</g>
<!-- \\WP_Buoy_Settings -->
<g id="node18" class="node"><title>\\WP_Buoy_Settings</title>
<polygon fill="none" stroke="black" points="619.5,-142 494.5,-142 494.5,-106 619.5,-106 619.5,-142"/>
<text text-anchor="middle" x="557" y="-121.2" font-family="Courier,monospace" font-size="11.00">WP_Buoy_Settings</text>
</g>
<!-- \\WP_Buoy_Alert -->
<g id="node19" class="node"><title>\\WP_Buoy_Alert</title>
<polygon fill="none" stroke="black" points="609,-412 505,-412 505,-376 609,-376 609,-412"/>
<text text-anchor="middle" x="557" y="-391.2" font-family="Courier,monospace" font-size="11.00">WP_Buoy_Alert</text>
</g>
<!-- \\WP_Buoy_Alert&#45;&gt;\\WP_Buoy_Plugin -->
<g id="edge12" class="edge"><title>\\WP_Buoy_Alert&#45;&gt;\\WP_Buoy_Plugin</title>
<path fill="none" stroke="black" d="M504.802,-404.928C465.234,-413.373 410.214,-425.116 367.616,-434.208"/>
<polygon fill="none" stroke="black" points="366.674,-430.831 357.625,-436.341 368.135,-437.676 366.674,-430.831"/>
</g>
</g>
</svg>
