<?xml version="1.0" encoding="UTF-8" standalone="no"?>
<!-- Created with Inkscape (http://www.inkscape.org/) -->

<svg
   xmlns:dc="http://purl.org/dc/elements/1.1/"
   xmlns:cc="http://creativecommons.org/ns#"
   xmlns:rdf="http://www.w3.org/1999/02/22-rdf-syntax-ns#"
   xmlns:svg="http://www.w3.org/2000/svg"
   xmlns="http://www.w3.org/2000/svg"
   xmlns:sodipodi="http://sodipodi.sourceforge.net/DTD/sodipodi-0.dtd"
   xmlns:inkscape="http://www.inkscape.org/namespaces/inkscape"
   width="373.85916"
   height="373.85916"
   viewBox="0 0 373.85917 373.85917"
   id="svg7021"
   version="1.1"
   inkscape:version="0.91 r13725"
   sodipodi:docname="buoy nofill.svg">
  <defs
     id="defs7023" />
  <sodipodi:namedview
     id="base"
     pagecolor="#ffffff"
     bordercolor="#666666"
     borderopacity="1.0"
     inkscape:pageopacity="0.0"
     inkscape:pageshadow="2"
     inkscape:zoom="0.35"
     inkscape:cx="534.78672"
     inkscape:cy="-424.49894"
     inkscape:document-units="px"
     inkscape:current-layer="layer1"
     showgrid="false"
     units="px"
     fit-margin-top="10"
     fit-margin-left="10"
     fit-margin-right="10"
     fit-margin-bottom="10"
     inkscape:window-width="1920"
     inkscape:window-height="1026"
     inkscape:window-x="0"
     inkscape:window-y="0"
     inkscape:window-maximized="1" />
  <metadata
     id="metadata7026">
    <rdf:RDF>
      <cc:Work
         rdf:about="">
        <dc:format>image/svg+xml</dc:format>
        <dc:type
           rdf:resource="http://purl.org/dc/dcmitype/StillImage" />
        <dc:title></dc:title>
      </cc:Work>
    </rdf:RDF>
  </metadata>
  <g
     inkscape:label="Layer 1"
     inkscape:groupmode="layer"
     id="layer1"
     transform="translate(646.92958,265.99591)">
    <g
       id="g7000"
       transform="matrix(0.8743766,0,0,0.8743766,-2102.1221,1078.2664)">
      <g
         id="g6994">
        <path
           id="path6967"
           style="fill:none;fill-opacity:1;fill-rule:evenodd;stroke:#ffffff;stroke-width:5.24442434;stroke-linecap:butt;stroke-linejoin:miter;stroke-miterlimit:4;stroke-dasharray:none;stroke-opacity:1"
           d="m 2068.1382,-1387.1565 c 0,0 33.4854,-136.9866 -124.2485,-121.3806 m -252.654,251.2624 c 0,0 -33.4854,136.9867 124.2484,121.3807 m 251.7729,-122.2477 c 0,0 33.4854,136.9867 -124.2484,121.3806 m -253.5353,-252.1293 c 0,0 -33.4854,-136.9867 124.2484,-121.3807"
           inkscape:connector-curvature="0" />
        <path
           inkscape:connector-curvature="0"
           id="path6969"
           style="fill:#cf0023;fill-opacity:1;fill-rule:evenodd;stroke:#ffffff;stroke-width:3.52439022;stroke-linecap:butt;stroke-linejoin:miter;stroke-miterlimit:4;stroke-dasharray:none;stroke-dashoffset:0;stroke-opacity:1"
           d="m 1772.0433,-1359.4757 -83.9544,-29.756 z m -85.0171,98.8325 83.9544,-27.6306 z m 126.9943,126.4629 27.6305,-83.423 z m 128.057,0 -27.6306,-82.8917 z m 125.9316,-126.4629 -83.4231,-27.0992 z m -0.5314,-128.5885 -81.829,29.2247 z m -123.8061,-124.8688 -29.756,83.423 z m -129.1197,0.5314 27.4747,83.4093 z m 176.9418,189.4288 c 0,62.3602 -50.5531,112.9133 -112.9134,112.9133 -62.3603,0 -112.9133,-50.553 -112.9133,-112.9133 0,-62.3604 50.553,-112.9134 112.9133,-112.9134 62.3604,0 112.9134,50.5529 112.9134,112.9134 z m 87.1425,0.5313 c 0,110.7812 -89.806,200.5872 -200.5872,200.5872 -110.7813,0 -200.5872,-89.806 -200.5872,-200.5872 0,-72.8637 38.8502,-136.6532 96.9661,-171.7843 30.2431,-18.2819 65.7034,-28.8029 103.6211,-28.8029 110.7812,0 200.5872,89.8059 200.5872,200.5872 z"
           sodipodi:nodetypes="ccccccccccccccccccccccccsssssssssss" />
        <path
           id="path6971"
           style="opacity:1;fill:#ffffff;fill-opacity:1;stroke:#ffffff;stroke-width:1.76219511;stroke-linejoin:miter;stroke-miterlimit:4;stroke-dasharray:none;stroke-opacity:1"
           d="m 1800.4672,-1141.0302 c 0.1667,-0.4257 7.9222,-18.166 17.2344,-39.4229 9.9116,-22.6251 17.1569,-38.4479 17.4755,-38.1642 1.1755,1.0475 15.0572,5.3487 21.1128,6.5427 24.1338,4.7584 50.117,1.6654 71.0937,-8.4629 2.6651,-1.2868 5.1475,-2.3792 5.5165,-2.4275 0.6074,-0.08 42.3619,71.6239 42.4991,72.9822 0.032,0.317 -3.96,2.5533 -8.8712,4.9698 -50.7893,24.9898 -110.0806,27.2413 -162.7966,6.1819 -2.6902,-1.0748 -3.4927,-1.6154 -3.2642,-2.1991 z m 184.7191,-140.8471 c 1.7189,-3.8316 4.7026,-14.0976 5.9106,-20.3366 3.0118,-15.5547 2.5089,-33.7339 -1.3716,-49.583 -1.4438,-5.897 -4.8328,-15.1962 -7.8635,-21.5773 -1.9192,-4.0408 -2.3995,-5.671 -1.8038,-6.1216 0.8978,-0.6791 72.3684,-39.1513 73.1582,-39.3807 1.1334,-0.3291 10.0539,19.4087 13.7697,30.4672 6.1892,18.4196 9.1827,34.4571 10.1839,54.5601 1.0154,20.3891 -0.492,37.8944 -4.8531,56.3569 -2.5872,10.9526 -9.039,30.087 -10.1641,30.1441 -0.5585,0.028 -77.1021,-31.5033 -77.6281,-31.9784 -0.1888,-0.1706 0.1089,-1.3184 0.6618,-2.5507 z m -181.5753,-179.2449 c -10.9936,-20.3814 -20.0026,-37.3386 -20.0201,-37.6827 -0.073,-1.4421 22.3418,-11.2104 34.765,-15.1503 35.7247,-11.3297 75.8404,-12.1323 112.258,-2.246 8.7911,2.3865 24.4062,7.8853 25.693,9.0476 0.4337,0.3919 -4.7025,12.6499 -16.0582,38.3247 -9.1828,20.7618 -16.8513,38.1514 -17.0412,38.6436 -0.2449,0.6349 -1.4046,0.5006 -3.992,-0.4625 -16.4119,-6.1086 -35.5865,-8.4835 -52.8657,-6.5477 -12.2969,1.3776 -27.2905,5.804 -38.101,11.2481 -1.9694,0.9918 -3.8211,1.821 -4.1151,1.8427 -0.2939,0.022 -9.5292,-16.6361 -20.5227,-37.0175 z m -103.9313,225.828 c -24.9113,-50.4431 -27.3838,-108.9253 -6.8326,-161.6107 l 2.487,-6.3757 38.5586,16.9901 c 21.2072,9.3446 38.8764,17.1823 39.265,17.4171 0.4289,0.2592 -0.095,2.6795 -1.3338,6.1605 -5.0093,14.0766 -7.0361,27.3668 -6.5081,42.6728 0.5849,16.9529 4.406,32.6916 11.1603,45.9685 1.0398,2.0439 1.6547,3.9772 1.3665,4.2962 -0.6909,0.765 -73.1106,41.8903 -73.8684,41.9481 -0.3217,0.024 -2.2543,-3.3356 -4.2945,-7.4669 z"
           inkscape:connector-curvature="0" />
        <path
           id="path6973"
           style="fill:#ffffff;fill-opacity:1;stroke:#ffffff;stroke-width:0;stroke-miterlimit:4;stroke-dasharray:none;stroke-opacity:1"
           d="m 1830.5068,-1230.3706 c -4.6008,-7.7625 -8.2396,-18.1188 -9.8638,-28.0732 -1.8503,-11.3401 -1.066,-24.4776 2.2173,-37.1413 1.245,-4.8018 2.9557,-9.9886 3.3897,-10.2771 0.8424,-0.56 4.1783,-4.9497 7.6041,-10.0062 2.0717,-3.0579 4.2481,-6.1362 4.8365,-6.8407 1.0639,-1.2742 1.0677,-1.2759 0.707,-0.3249 -2.3387,6.1656 -3.4902,13.0856 -3.0248,18.1767 0.1469,1.6076 0.016,2.295 -0.9827,5.0471 -2.2723,6.2798 -4.2985,15.0844 -5.1779,22.5006 -1.4617,12.3251 -0.9278,30.2983 1.3901,46.8002 0.1648,1.1719 0.2199,2.0779 0.1227,2.0134 -0.098,-0.063 -0.6453,-0.9081 -1.2182,-1.8746 z m -17.4739,-26.9291 c -1.176,-2.57 -2.6913,-7.7501 -3.1392,-10.7313 -1.6822,-11.1963 -0.3142,-20.7677 4.3353,-30.3339 1.2267,-2.5241 5.887,-9.2026 6.4981,-9.3125 0.2432,-0.043 0.5436,1.0409 0.8475,3.0595 0.4024,2.6741 0.3861,3.4147 -0.1127,5.1099 -0.8151,2.7708 -2.2279,8.9608 -3.1088,13.6208 -0.9646,5.103 -1.0153,5.4401 -2.2339,14.8509 -0.5687,4.392 -1.2531,9.677 -1.5211,11.7444 -0.2679,2.0673 -0.5432,3.7689 -0.6117,3.7812 -0.069,0.012 -0.4976,-0.7927 -0.9535,-1.789 z m 28.5488,8.2341 c -4.3622,-6.4443 -7.5906,-14.6034 -8.6029,-21.7424 -0.521,-3.6742 -0.6047,-9.061 -0.1903,-12.2594 0.6067,-4.6827 2.5146,-12.0634 3.9945,-15.4523 l 0.4573,-1.0475 0.1112,1.225 c 0.2638,2.906 1.6701,6.4467 2.433,6.1256 1.0386,-0.4371 7.1259,-9.9977 8.5479,-13.4251 l 0.3331,-0.8028 0.086,1.0108 c 0.048,0.5697 0.2326,0.9844 0.4223,0.9503 0.1851,-0.033 1.6567,-1.7878 3.2701,-3.899 2.7647,-3.6176 3.9791,-4.9942 2.6587,-3.0137 -0.3253,0.4879 -1.3172,2.3323 -2.2042,4.0987 -5.2348,10.4248 -7.9761,19.6486 -9.7022,32.6459 -0.7444,5.6051 -0.912,15.6991 -0.3832,23.0896 0.1712,2.3931 0.2537,4.3615 0.1835,4.3742 -0.07,0.012 -0.7068,-0.8324 -1.4145,-1.8779 z m -46.197,-31.9151 c 0.2745,-6.6137 4.0187,-15.5012 11.3971,-27.0528 l 4.307,-6.7428 1.4578,-0.5332 c 2.993,-1.0946 5.7096,-3.0083 9.715,-6.8435 1.0982,-1.0515 2.047,-1.9209 2.1085,-1.932 0.061,-0.011 -0.2935,0.7171 -0.789,1.6181 -0.9794,1.7812 -1.9911,4.9917 -2.0687,6.5648 -0.027,0.544 0.059,1.573 0.1905,2.2867 l 0.2392,1.2977 -3.813,5.3884 c -4.6761,6.608 -11.9521,15.3926 -21.7665,26.2796 l -1.0393,1.1529 0.062,-1.4839 z m 1.1311,-22.5304 c 0.3233,-0.4555 3.0668,-4.7153 6.0952,-9.4668 10.5689,-16.5829 19.4442,-27.3821 30.1981,-36.7441 3.8149,-3.3212 7.9285,-6.3631 7.334,-5.4233 -2.0087,3.1753 -9.8846,17.4505 -10.496,19.0241 -0.1016,0.2618 -0.6306,1.5542 -1.1753,2.8722 l -0.9904,2.3961 -3.1566,2.3668 c -5.6139,4.2094 -10.1845,8.052 -15.7097,13.2077 -3.8393,3.5824 -10.5524,10.4299 -11.271,11.4964 -0.2779,0.4096 -0.7085,0.8255 -0.9601,0.9224 -0.3391,0.1304 -0.3051,-0.038 0.1318,-0.6515 z m 57.2525,17.6099 c -1.1158,-8.0514 0.7736,-18.2648 5.2156,-28.194 1.7937,-4.0092 8.8778,-16.4694 11.9866,-21.083 l 0.9203,-1.3658 -0.1054,2.6745 c -0.058,1.471 0.011,3.0562 0.1544,3.523 l 0.2598,0.8486 0.971,-0.541 c 0.7269,-0.405 1.5242,-1.2904 3.1725,-3.5229 l 2.2015,-2.9819 -0.4456,2.0802 c -0.2451,1.1441 -0.4058,2.5561 -0.3572,3.1378 0.088,1.0487 0.067,1.085 -2.406,4.2897 -5.0473,6.5398 -9.8291,15.6282 -15.7115,29.8617 -3.6237,8.7682 -5.4768,13.1584 -5.5393,13.123 -0.036,-0.021 -0.1782,-0.8528 -0.3163,-1.8499 z m -13.6322,-13.414 c 0.17,-12.6124 3.4786,-27.4865 9.1916,-41.3213 8.0362,-19.4603 24.5649,-43.5245 40.339,-58.7294 3.2499,-3.1324 8.3232,-7.5344 11.4351,-9.9217 3.0611,-2.3482 9.7904,-6.979 12.0336,-8.2808 2.3297,-1.3521 5.1078,-1.5525 5.8773,-0.424 0.5027,0.737 -0.1402,1.4169 -1.9867,2.1008 -0.9113,0.3376 -3.1789,1.4492 -5.0391,2.4703 -10.5652,5.7991 -17.6087,14.9474 -24.3773,31.6618 -0.8056,1.9895 -1.2899,2.8304 -2.3326,4.05 -0.7237,0.8465 -2.6666,3.3215 -4.3175,5.4999 -1.6509,2.1784 -3.6618,4.8227 -4.4688,5.8762 -2.5203,3.2905 -11.9087,17.5477 -14.2776,21.6819 -6.7152,11.7197 -12.1088,24.4944 -13.95,33.0403 -0.4109,1.9071 -0.7463,2.5886 -4.2459,8.6284 -2.0898,3.6068 -3.827,6.5697 -3.8602,6.5843 -0.034,0.016 -0.043,-1.298 -0.02,-2.9167 z m -16.3835,-9.4257 c 1.876,-11.0264 5.9899,-23.3599 11.6314,-34.8719 3.9089,-7.9761 9.2887,-16.8157 13.0919,-21.5112 12.1179,-14.9611 23.4124,-25.4796 35.4387,-33.0042 3.5669,-2.2318 4.3932,-2.6652 3.3923,-1.7799 -1.0923,0.9663 -6.6731,7.14 -9.2422,10.224 -8.914,10.7011 -19.1676,26.3708 -27.1961,41.5618 -1.4797,2.7998 -2.963,5.72 -3.2962,6.4895 -1.1753,2.7139 -4.0105,7.1351 -9.4233,14.6948 -3.0095,4.2032 -7.5362,10.5879 -10.0593,14.1884 -2.5231,3.6006 -4.6303,6.5581 -4.6827,6.5723 -0.053,0.016 0.1031,-1.1394 0.3455,-2.5636 z m 44.1516,13.1438 c 0.8977,-12.9523 3.3166,-21.8307 8.208,-30.1266 1.8807,-3.1899 1.8407,-3.2038 1.6975,0.5904 -0.099,2.6404 0.3819,5.3974 0.9259,5.302 0.181,-0.032 1.5792,-1.9636 3.1068,-4.2929 l 2.7774,-4.2352 -0.9839,3.1739 c -0.5412,1.7456 -1.3272,4.8744 -1.7467,6.9529 l -0.7627,3.7792 -2.3412,3.1735 c -2.5566,3.4653 -4.577,7.1359 -7.9798,14.4974 -2.6509,5.7348 -3.0481,6.5487 -3.1637,6.4831 -0.056,-0.031 0.063,-2.4154 0.2624,-5.2977 z m -16.6836,-15.7152 c -0.039,-4.6513 1.793,-11.4904 5.1165,-19.1002 4.1024,-9.393 13.7725,-25.2119 22.4111,-36.6616 2.0295,-2.6898 7.0257,-8.8554 7.2014,-8.887 0.072,-0.012 -0.5572,1.7748 -1.3995,3.9733 -2.0166,5.2627 -2.9438,8.2526 -3.2373,10.439 l -0.2405,1.7909 -1.5944,1.6884 c -1.6203,1.7159 -2.8306,3.6463 -4.3558,6.9473 -0.897,1.9412 -1.413,3.5928 -3.0296,9.6957 l -1.1235,4.2415 -2.2338,2.4221 c -1.9695,2.1356 -3.1284,3.7783 -9.7974,13.8876 -4.16,6.3061 -7.5948,11.448 -7.6328,11.4265 -0.038,-0.022 -0.076,-0.8602 -0.084,-1.8635 z m -31.9917,-30.7225 c 17.4629,-24.6243 33.6042,-40.5991 50.3472,-49.8278 4.3656,-2.4063 5.3096,-2.7174 3.2662,-1.0764 -3.0869,2.479 -8.3253,7.3146 -11.4767,10.5941 -5.0422,5.2472 -7.8297,8.6118 -11.7208,14.1471 l -3.5761,5.087 -3.4397,2.6954 c -1.8919,1.4825 -4.6096,3.7307 -6.0393,4.9961 -1.4298,1.2654 -3.1213,2.7391 -3.7589,3.2746 -0.6378,0.5358 -1.8989,1.65 -2.8028,2.476 -9.6722,8.8408 -14.2475,12.9629 -14.4159,12.9885 -0.1114,0.016 1.5163,-2.3928 3.6169,-5.3545 z m 68.5265,41.6162 c -0.9897,-5.1728 -0.4217,-11.4343 1.475,-16.2614 0.781,-1.9875 4.3797,-8.262 4.6505,-8.1083 0.076,0.043 -0.016,0.938 -0.2081,1.9879 -0.4295,2.363 -0.5645,5.9008 -0.2686,7.0371 0.1808,0.6946 0.062,1.0975 -0.6429,2.1783 -0.8784,1.3475 -1.987,4.8276 -2.8626,8.9876 -0.5468,2.5976 -1.3367,5.2081 -1.6441,5.4337 -0.125,0.092 -0.3497,-0.473 -0.4992,-1.2549 z m -4.1903,-9.6807 c -0.078,-1.0674 0.1851,-5.2261 0.4828,-7.6342 0.703,-5.6888 2.3737,-11.7349 4.4315,-16.0373 1.9419,-4.0604 5.6918,-8.7934 8.765,-11.0629 l 0.8536,-0.6306 -0.4152,1.331 c -0.9167,2.9382 -0.3212,5.1636 1.8582,6.944 l 1.3109,1.0707 -1.2913,1.3188 c -5.0765,5.1842 -9.4182,11.9986 -14.7904,23.2134 -0.5867,1.2247 -1.0865,2.2155 -1.1108,2.2017 -0.024,-0.012 -0.067,-0.3353 -0.094,-0.7146 z m 17.9172,9.1662 c -1.1846,-7.0743 -1.0602,-10.5914 0.4888,-13.8165 0.4375,-0.9108 0.7151,-1.2644 0.9071,-1.1553 0.1523,0.086 0.2159,0.2484 0.1414,0.36 -0.2782,0.4173 1.0579,4.5966 1.7533,5.4843 l 0.7227,0.9225 -0.9439,1.6893 c -0.556,0.9951 -1.1046,2.4932 -1.3351,3.6458 -0.6361,3.1806 -1.0886,4.9013 -1.2629,4.8024 -0.09,-0.051 -0.302,-0.9206 -0.4714,-1.9325 z m -6.7914,-8.7892 c -0.2345,-10.4993 0.5896,-15.5665 3.2782,-20.1566 0.8446,-1.442 2.0164,-3.0634 2.9343,-4.0595 1.46,-1.5848 1.5781,-1.6561 2.6515,-1.6026 0.6178,0.031 1.5258,-0.1167 2.0176,-0.3278 l 0.8943,-0.3839 -0.5674,1.1614 c -0.8108,1.6594 -0.9613,3.922 -0.3353,5.0411 l 0.5204,0.9303 -1.4231,2.1346 c -1.8523,2.7782 -2.5491,5.3775 -2.2021,8.214 0.067,0.5439 -0.2682,1.5073 -1.058,3.0447 -1.8303,3.5627 -6.0874,10.0614 -6.4457,9.8397 -0.1,-0.062 -0.219,-1.7878 -0.2647,-3.8354 z m -15.5665,-14.6842 c -0.8802,-4.0864 0.038,-10.5345 2.2246,-15.6287 2.5034,-5.8311 6.992,-11.6535 10.7131,-13.8964 1.1641,-0.7017 1.1739,-0.7018 1.2357,-0.019 0.078,0.8627 0.766,1.2734 1.6222,0.968 0.6291,-0.2243 0.6486,-0.166 0.4789,1.4293 -0.1611,1.5132 0.4857,4.3648 1.1493,5.0679 0.1784,0.189 -0.044,0.4873 -0.8989,1.2043 -3.5776,3.0009 -7.6125,8.2866 -12.3586,16.1898 -1.9594,3.2629 -3.6351,5.9454 -3.7237,5.9613 -0.089,0.016 -0.2877,-0.5588 -0.4425,-1.2773 z m 28.0076,16.1667 c -2.7697,-4.171 -3.919,-8.7639 -3.1947,-12.7672 0.2969,-1.6415 1.929,-5.1563 2.7879,-6.004 0.5166,-0.5099 0.7129,-0.5394 1.3148,-0.198 0.7389,0.4194 2.678,0.1327 3.907,-0.5777 0.3315,-0.1916 0.6668,-0.3085 0.7452,-0.2597 0.079,0.048 0.058,0.8702 -0.046,1.8254 -0.24,2.2106 0.092,3.9064 0.9009,4.6031 0.7827,0.6742 0.6568,1.0677 -2.4035,7.5115 -1.1949,2.5158 -2.3085,5.2137 -2.4748,5.9954 -0.1663,0.7817 -0.3788,1.3754 -0.4724,1.3194 -0.094,-0.055 -0.5726,-0.7078 -1.0643,-1.4483 z m -81.9255,-50.7357 c 4.7262,-7.7615 10.9692,-14.2883 17.1976,-17.9799 2.3869,-1.4147 5.4375,-2.7742 7.1262,-3.1757 l 1.3138,-0.3125 -1.0138,0.7317 c -1.7298,1.2485 -6.2525,5.1573 -8.4191,7.2764 -2.3225,2.2715 -7.0319,7.5725 -8.464,9.5274 -0.5681,0.7756 -1.1386,1.305 -1.4361,1.3327 -0.6501,0.061 -1.6445,0.5748 -4.6252,2.3911 l -2.4681,1.5039 0.7888,-1.2952 z m 89.0195,51.375 c -1.0304,-2.3016 -1.0382,-6.862 -0.018,-10.0065 0.8252,-2.5415 1.1283,-3.1359 1.4932,-2.9288 0.5578,0.3167 3.5258,0.117 4.9819,-0.335 l 1.3972,-0.4337 -1.0775,1.9463 c -1.0588,1.9123 -1.6454,3.5655 -2.0767,5.8519 -0.1198,0.6347 -0.5523,1.8271 -0.9612,2.6498 -0.8214,1.6524 -2.8706,4.5023 -3.1286,4.3508 -0.091,-0.053 -0.3654,-0.5457 -0.6112,-1.0948 z m -41.1556,-24.7253 c -0.2342,-3.2115 0.8171,-9.5355 2.2578,-13.5827 2.7088,-7.6088 8.2471,-16.261 14.9948,-23.425 1.2645,-1.3426 2.3253,-2.4802 2.3572,-2.5281 0.236,-0.3539 0.3573,0.7867 0.2822,2.6542 -0.049,1.2183 0.068,2.6842 0.2591,3.2579 l 0.348,1.0428 0.7708,-0.2161 c 0.4239,-0.119 0.8086,-0.1946 0.855,-0.1681 0.046,0.027 -0.5638,1.0198 -1.3559,2.2078 l -1.4401,2.1601 -0.1736,2.9515 -0.1736,2.9516 -1.5247,0.971 c -3.7008,2.3568 -6.2874,5.5073 -12.352,15.0448 -2.6314,4.1383 -4.8451,7.4894 -4.9195,7.4473 -0.075,-0.042 -0.1581,-0.3882 -0.1858,-0.7688 z m 47.1129,25.18 c -0.9256,-4.715 -0.1906,-8.6504 2.4327,-13.024 0.9115,-1.5197 1.7227,-2.7259 1.8027,-2.6805 0.08,0.046 0.08,0.6661 -8e-4,1.3794 -0.08,0.7132 -0.025,1.7373 0.1233,2.2757 0.2893,1.0503 1.4848,2.859 2.4755,3.7452 0.4711,0.4213 0.5131,0.6024 0.1859,0.8005 -0.7971,0.4825 -2.3747,2.7089 -2.8385,4.006 -0.6952,1.9441 -3.1279,6.0302 -3.4734,5.8342 -0.1538,-0.087 -0.4722,-1.1388 -0.7073,-2.3365 z m -5.9576,-16.1956 c -1.8592,-2.8048 -0.5769,-5.5712 4.0216,-8.6764 0.5183,-0.3499 1.4163,-1.3431 2.0151,-2.2288 0.5942,-0.8786 1.4535,-2.0071 1.9099,-2.5079 l 0.8298,-0.9101 1.0221,0.7579 c 0.5622,0.417 1.6581,1.5663 2.4354,2.5541 0.7773,0.9879 1.6705,1.9854 1.9848,2.2168 0.512,0.3768 0.5034,0.5937 -0.083,2.0829 -0.4063,1.0326 -1.2564,2.4757 -2.2444,3.8096 -2.5406,3.4304 -5.4595,5.0814 -8.6821,4.911 -1.5704,-0.083 -2.1902,-0.471 -3.2097,-2.0091 z m 12.8562,4.923 c -1.5379,-2.6542 -1.1464,-4.7779 2.0023,-10.8614 l 0.7844,-1.5156 1.8273,1.0386 c 2.1455,1.219 2.8199,2.1184 2.9628,3.9516 0.051,0.6513 0.2865,1.4338 0.5236,1.7389 0.5143,0.6615 0.1734,2.6037 -0.6825,3.8873 -1.2111,1.8165 -3.9158,3.3578 -5.6683,3.2302 -0.9704,-0.071 -0.9099,-0.019 -1.7498,-1.4694 z m -19.4426,-11.6064 c -1.1284,-2.2628 -0.9327,-3.9575 0.7515,-6.5077 0.8151,-1.2335 1.3711,-1.8006 2.2855,-2.3289 0.8331,-0.4815 1.8027,-1.4203 3.1206,-3.0217 1.0517,-1.2779 2.0332,-2.4212 2.1812,-2.5408 0.1808,-0.1459 0.5581,0.3056 1.149,1.3784 0.7764,1.4081 1.0575,1.6967 2.3908,2.4535 0.831,0.4717 1.7659,0.937 2.0774,1.034 0.5456,0.1699 0.5039,0.2645 -1.1258,2.5562 -3.8428,5.404 -7.9295,8.4842 -11.0516,8.3299 -1.2144,-0.06 -1.0847,0.038 -1.7786,-1.3529 z m -6.7771,-8.1924 c -1.1,-1.8578 -1.0775,-3.7708 0.064,-5.4834 0.5932,-0.8896 0.9135,-1.0987 2.2103,-1.4416 2.1822,-0.5775 3.2523,-1.2971 6.1959,-4.1667 1.4391,-1.403 2.6751,-2.5679 2.7468,-2.5887 0.3432,-0.099 1.3346,1.5147 2.0433,3.3267 0.4328,1.1065 0.9656,2.1942 1.184,2.4171 0.3259,0.3326 0.2877,0.5071 -0.2129,0.9737 -0.3356,0.3127 -1.2753,1.3675 -2.0883,2.3439 -2.8633,3.4391 -4.4879,4.6565 -7.1662,5.3705 -1.6497,0.4396 -3.6299,0.5573 -4.1717,0.248 -0.1776,-0.101 -0.54,-0.5512 -0.8055,-0.9995 z m 36.308,14.2976 c 0.2727,-1.5774 -0.1478,-3.3506 -1.0775,-4.5441 -0.5559,-0.7135 -1.3587,-1.3017 -3.2422,-2.3757 -2.579,-1.4694 -3.5934,-2.3385 -4.2253,-3.6151 -0.237,-0.4788 -1.0604,-1.2182 -2.3563,-2.1158 -2.2395,-1.551 -3.1971,-2.7099 -3.03,-3.6666 0.1068,-0.6121 0,-0.7096 -1.8393,-1.7563 -2.4488,-1.39 -4.0096,-3.0107 -5.0272,-5.2201 -0.413,-0.8968 -0.7524,-1.794 -0.7542,-1.994 -10e-4,-0.1998 -0.7434,-1.4463 -1.6481,-2.77 -2.2211,-3.2496 -2.621,-4.5565 -2.0838,-6.8088 0.058,-0.2421 -0.459,-1.1625 -1.1483,-2.0452 -2.1178,-2.7121 -2.7409,-5.6562 -1.6498,-7.7954 0.5503,-1.0791 0.5574,-1.2742 0.063,-1.7193 -2.2389,-2.0162 -2.3018,-5.4534 -0.141,-7.7051 1.0219,-1.0648 1.078,-1.216 1.4806,-3.9899 0.4584,-3.1575 1.232,-4.7666 2.6552,-5.523 0.6622,-0.352 0.789,-0.5286 0.795,-1.1071 0.011,-1.0988 0.453,-2.8478 1.3203,-5.2301 1.1083,-3.0447 1.4023,-5.9442 0.5877,-5.7979 -0.3736,0.067 -14.7212,15.1027 -18.6652,19.5602 -4.2152,4.764 -8.2544,9.8117 -10.2967,12.8676 -0.9999,1.4961 -1.8408,2.6457 -1.8687,2.5546 -0.028,-0.091 0.5914,-2.5109 1.3762,-5.3774 2.2,-8.0363 4.473,-14.1306 7.8827,-21.1353 1.4516,-2.9822 6.1412,-10.0136 8.222,-12.3264 3.3533,-3.729 7.9667,-7.6198 10.8084,-9.1155 3.5366,-1.8614 7.7509,-2.801 10.6798,-2.3811 5.5367,0.7937 7.4847,5.4927 5.128,12.3705 -0.2979,0.8693 -0.7436,2.8386 -0.9904,4.376 -0.2469,1.5374 -0.7655,4.7725 -1.1525,7.189 -2.0978,13.098 -2.5676,20.725 -1.6986,27.5728 0.4699,3.7018 2.4193,9.856 4.0792,12.8772 2.4263,4.4162 6.1312,8.416 11.0363,11.9149 2.7574,1.9667 8.9402,5.3089 12.1253,6.5544 1.1548,0.4516 2.1258,0.9061 2.1575,1.0101 0.074,0.2413 -3.063,2.3917 -5.4051,3.7055 -2.807,1.5744 -6.311,3.1138 -8.9723,3.9419 -3.3984,1.0573 -3.3733,1.0604 -3.1244,-0.3791 z m -39.1281,-24.0315 c -0.7611,-1.707 -0.8024,-4.5845 -0.081,-5.6661 0.2403,-0.3604 0.9205,-0.7595 1.6585,-0.9731 1.8709,-0.5416 3.931,-1.8324 6.3155,-3.9573 1.1749,-1.047 2.2628,-2.0055 2.4173,-2.13 0.1829,-0.1474 0.3544,0.1274 0.4913,0.7872 0.1418,0.6835 0.4344,1.1407 0.8989,1.4043 0.59,0.3349 0.6584,0.5656 0.4779,1.6098 -0.1486,0.8594 -0.02,1.589 0.4356,2.4734 0.7234,1.404 0.8655,1.1121 -2.1298,4.3767 -3.1975,3.4852 -6.1951,4.7624 -9.0611,3.8606 -0.5764,-0.1814 -0.8739,-0.5546 -1.4228,-1.7855 z m -51.9359,-34.6023 c 1.1252,-1.6876 6.408,-6.6823 9.3206,-8.8123 2.3323,-1.7056 6.3755,-4.0909 6.461,-3.8118 0.03,0.099 -0.5175,0.6913 -1.2172,1.3159 -1.5533,1.3857 -2.3001,2.4401 -1.8922,2.6715 0.5028,0.2854 4.1913,-0.6047 7.2398,-1.747 1.5834,-0.5933 3.0754,-1.098 3.3155,-1.1215 0.2401,-0.023 0.7232,-0.1851 1.0736,-0.3595 0.3503,-0.1742 0.6582,-0.2475 0.6842,-0.1625 0.026,0.085 -1.1543,0.7987 -2.6229,1.5861 -4.9465,2.6518 -8.903,5.2638 -11.702,7.7255 -0.7226,0.6356 -1.2465,0.8519 -2.0763,0.8577 -1.2312,0.01 -2.7974,0.3901 -6.2696,1.5278 -1.2787,0.419 -2.3702,0.7362 -2.4256,0.7048 -0.055,-0.031 0,-0.2 0.1112,-0.3747 z m 48.2736,26.3543 c -0.648,-1.8303 -0.5295,-3.8711 0.3411,-5.8751 1.129,-2.5988 1.8023,-3.4249 2.9256,-3.59 1.969,-0.2893 4.4397,-1.9424 7.0903,-4.7443 l 1.388,-1.4671 0.4644,0.9935 c 0.2554,0.5464 0.6238,1.084 0.8186,1.1946 0.2415,0.137 0.1718,0.5742 -0.2185,1.3732 -0.6868,1.4058 -0.5836,3.1533 0.2865,4.8491 l 0.6131,1.1951 -1.5502,1.3417 c -2.8059,2.4285 -5.5763,4.3345 -7.5852,5.2184 -2.0752,0.913 -3.4804,1.3249 -3.8345,1.1239 -0.1156,-0.066 -0.4484,-0.7915 -0.7392,-1.613 z m 46.1639,16.3097 c -1.045,-0.9068 -1.0301,-1.0897 0.1008,-1.2294 1.4848,-0.1836 5.3124,-1.578 9.9086,-3.6103 4.1985,-1.8562 7.1603,-2.7955 7.7536,-2.4589 0.3979,0.226 -0.3469,1.8311 -1.8672,4.0238 -1.6445,2.3718 -4.0073,4.4106 -7.1242,6.1473 -1.7232,0.96 -1.9108,1.0008 -2.8754,0.6239 -1.4718,-0.5751 -4.8127,-2.5561 -5.8961,-3.4964 z m -45.6714,-27.4041 c -0.8386,-3.4218 -0.1006,-7.7946 1.7886,-10.6014 0.4082,-0.6067 1.5634,-1.8786 2.5667,-2.827 2.4046,-2.2728 6.7016,-6.763 10.403,-10.8706 1.643,-1.8234 3.0548,-3.277 3.1372,-3.2301 0.083,0.047 -0.1186,1.2724 -0.4472,2.7236 -0.54,2.3862 -0.7565,2.8814 -2.264,5.1782 -1.3883,2.1151 -1.6873,2.7515 -1.7883,3.8069 -0.099,1.031 -0.3246,1.5256 -1.2117,2.6528 -1.0395,1.3209 -1.0948,1.4915 -1.183,3.6568 -0.1114,2.7305 -0.5212,3.6997 -2.4446,5.7806 -1.5787,1.708 -3.0398,2.6683 -5.6602,3.7201 -2.3364,0.9379 -2.6689,0.939 -2.8965,0.01 z m 40.768,23.087 c -0.7703,-0.8198 -1.7756,-2.0644 -2.234,-2.7659 l -0.8334,-1.2752 1.2014,-0.064 c 10.0104,-0.5344 19.8698,-4.1742 25.3786,-9.3695 1.1825,-1.1151 1.2117,-1.125 1.4451,-0.4869 0.3289,0.899 0.1817,3.0597 -0.3026,4.442 -0.222,0.6337 -1.0994,2.1934 -1.9497,3.4658 -1.5089,2.2578 -1.5735,2.3195 -2.6945,2.5574 -0.6318,0.1339 -2.1806,0.6384 -3.4419,1.1207 -1.2613,0.4824 -3.9127,1.4971 -5.8921,2.2551 -1.9794,0.7579 -4.5802,1.6019 -5.7796,1.8755 -2.5286,0.5768 -2.7966,0.4808 -4.8973,-1.7549 z m -3.7394,-5.8844 -0.222,-0.822 2.7121,-1.1777 c 6.0668,-2.6348 10.0249,-5.1607 13.275,-8.4719 0.9819,-1.0003 1.8633,-1.7746 1.9586,-1.7205 0.4498,0.2553 0.9429,2.1368 0.8595,3.279 -0.1139,1.5592 -1.7996,4.6222 -3.3271,6.0458 -1.1023,1.0271 -4.246,2.1338 -8.6023,3.0282 -2.449,0.5028 -5.9471,0.9363 -6.2354,0.7727 -0.1078,-0.061 -0.2964,-0.4815 -0.4184,-0.9335 z m -69.1585,-43.5624 c 0.269,-0.4034 3.4533,-3.4157 4.755,-4.4981 7.8342,-6.5143 18.3958,-12.0577 29.9135,-15.7003 5.6218,-1.778 11.666,-3.3142 11.7651,-2.9903 0.027,0.087 -2.0304,1.647 -4.5714,3.4666 -2.5409,1.8197 -5.2601,3.7948 -6.0425,4.3891 -0.7825,0.5943 -4.9168,3.0827 -9.1874,5.5297 l -7.7646,4.449 -3.6176,0.5561 c -2.6823,0.4123 -4.6504,0.9483 -7.6126,2.0731 -5.019,1.9058 -7.7381,2.876 -7.6375,2.7251 z"
           inkscape:connector-curvature="0" />
      </g>
    </g>
  </g>
</svg>
