<?xml version="1.0" encoding="UTF-8" standalone="no"?>
<svg viewBox="0 0 425.60001 425.60001" xmlns="http://www.w3.org/2000/svg">
<defs>
<filter id="filter4295">
<feGaussianBlur stdDeviation="3.6"/>
</filter>
<filter id="filter4299">
<feGaussianBlur stdDeviation="9.5"/>
</filter>
<linearGradient gradientUnits="userSpaceOnUse" id="linearGradient4249" x2="0" y1="522.36218" y2="162.36218">
<stop offset="0" stop-color="#787878"/>
<stop offset="1" stop-color="#f0f0f0"/>
</linearGradient>
<radialGradient cx="229.99998" cy="324.26694" gradientTransform="matrix(1.10526,-1.526984e-8,1.5269841e-8,1.10526,-24.21053,-36.03813)" gradientUnits="userSpaceOnUse" id="radialGradient3841" r="190">
<stop offset="0" stop-color="#8c8c8c"/>
<stop offset=".4286" stop-color="#9cbdcc"/>
<stop offset=".5238" stop-color="#8c8c8c"/>
<stop offset=".7143" stop-color="#fff"/>
<stop offset=".8947" stop-color="#8c8c8c"/>
<stop offset="1" stop-color="#9cbdcc"/>
</radialGradient>
<radialGradient cx="230.00058" cy="324.09003" gradientTransform="matrix(1.09446,-5.5070984e-8,5.5070983e-8,1.09446,-21.72701,-32.34219)" gradientUnits="userSpaceOnUse" id="radialGradient4019" r="191.875">
<stop offset="0" stop-color="#a00000"/>
<stop offset=".4286" stop-color="#b40016"/>
<stop offset=".5238" stop-color="#780000"/>
<stop offset=".619" stop-color="#ff0101"/>
<stop offset=".7143" stop-color="#ff4f01"/>
<stop offset=".8095" stop-color="#ff0101"/>
<stop offset=".9048" stop-color="#780000"/>
<stop offset="1" stop-color="#b40016"/>
</radialGradient>
</defs>
<title>Lifesaver</title>
<g transform="translate(-17.2,-145.575)">
<path d="m127.9375,166.375c-43.35522,1.09108-77.9375,36.3725-77.9375,80v200c0,44.32 35.68,80 80,80h200c44.32,0 80-35.68 80-80v-200c0-44.32-35.68-80-80-80h-200c-.6925,0-1.37432-.0173-2.0625,0zm4.84375,5.03125h194.4375c43.08386,0 77.78125,34.66614 77.78125,77.75v194.4375c0,43.08386-34.69739,77.78125-77.78125,77.78125h-194.4375c-43.08386,0-77.78125-34.69739-77.78125-77.78125v-194.4375c0-43.08386 34.69739-77.75 77.78125-77.75z" filter="url(#filter4295)" opacity=".8"/>
<path d="m127.9375,162.375c-43.35522,1.09108-77.9375,36.3725-77.9375,80v200c0,44.32 35.68,80 80,80h200c44.32,0 80-35.68 80-80v-200c0-44.32-35.68-80-80-80h-200c-.6925,0-1.37432-.0173-2.0625,0zm4.84375,5.03125h194.4375c43.08386,0 77.78125,34.66614 77.78125,77.75v194.4375c0,43.08386-34.69739,77.78125-77.78125,77.78125h-194.4375c-43.08386,0-77.78125-34.69739-77.78125-77.78125v-194.4375c0-43.08386 34.69739-77.75 77.78125-77.75z" fill="url(#linearGradient4249)" stroke="#b4b4b4" stroke-linecap="round" stroke-linejoin="round" stroke-width="2"/>
<path d="m230,168.375c-104.93411,0-190,85.06589-190,190s85.06589,190 190,190 190-85.06589 190-190-85.06589-190-190-190zm0,80c60.75132,0 110,49.24868 110,110s-49.24868,110-110,110-110-49.24868-110-110 49.24868-110 110-110z" filter="url(#filter4299)" opacity=".6"/>
<path d="m230,152.375c-104.93411,0-190,85.06589-190,190s85.06589,190 190,190 190-85.06589 190-190-85.06589-190-190-190zm0,80c60.75132,0 110,49.24868 110,110s-49.24868,110-110,110-110-49.24868-110-110 49.24868-110 110-110z" fill="url(#radialGradient3841)" stroke="#a0a0a0" stroke-width="3"/>
<path d="m230,152.375c-21.00213,0-41.20612,3.39502-60.09375,9.6875l25.3125,75.9375c10.93238-3.64111 22.62543-5.625 34.78125-5.625s23.84887,1.98389 34.78125,5.625l25.3125-75.9375c-18.88763-6.29248-39.09162-9.6875-60.09375-9.6875zm-180.3125,129.90625c-6.29248,18.88763-9.6875,39.09162-9.6875,60.09375s3.39502,41.20612 9.6875,60.09375l75.9375-25.3125c-3.64111-10.93238-5.625-22.62543-5.625-34.78125s1.98389-23.84887 5.625-34.78125l-75.9375-25.3125zm360.625,0-75.9375,25.3125c3.64111,10.93238 5.625,22.62543 5.625,34.78125s-1.98389,23.84887-5.625,34.78125l75.9375,25.3125c6.29248-18.88763 9.6875-39.09162 9.6875-60.09375s-3.39502-41.20612-9.6875-60.09375zm-215.09375,164.46875-25.3125,75.9375c18.88763,6.29248 39.09162,9.6875 60.09375,9.6875s41.20612-3.39502 60.09375-9.6875l-25.3125-75.9375c-10.93238,3.64111-22.62543,5.625-34.78125,5.625s-23.84887-1.98389-34.78125-5.625z" fill="url(#radialGradient4019)" stroke="#c80000" stroke-linecap="round" stroke-linejoin="round" stroke-width="3"/>
</g>
</svg>
